<?xml version="1.0" encoding="UTF-8" standalone="no"?>
<!-- Created with Inkscape (http://www.inkscape.org/) -->

<svg
   width="57.311718mm"
   height="45.529438mm"
   viewBox="0 0 57.311718 45.529438"
   version="1.1"
   id="svg490808"
   inkscape:version="1.1.1 (c3084ef, 2021-09-22)"
   sodipodi:docname="github-logo.svg"
   xmlns:inkscape="http://www.inkscape.org/namespaces/inkscape"
   xmlns:sodipodi="http://sodipodi.sourceforge.net/DTD/sodipodi-0.dtd"
   xmlns="http://www.w3.org/2000/svg"
   xmlns:svg="http://www.w3.org/2000/svg">
  <sodipodi:namedview
     id="namedview490810"
     pagecolor="#505050"
     bordercolor="#eeeeee"
     borderopacity="1"
     inkscape:pageshadow="0"
     inkscape:pageopacity="0"
     inkscape:pagecheckerboard="0"
     inkscape:document-units="mm"
     showgrid="false"
     fit-margin-top="0"
     fit-margin-left="0"
     fit-margin-right="0"
     fit-margin-bottom="0"
     inkscape:zoom="0.46947952"
     inkscape:cx="33.015285"
     inkscape:cy="418.54861"
     inkscape:window-width="1280"
     inkscape:window-height="755"
     inkscape:window-x="0"
     inkscape:window-y="357"
     inkscape:window-maximized="0"
     inkscape:current-layer="layer1" />
  <defs
     id="defs490805" />
  <g
     inkscape:label="Layer 1"
     inkscape:groupmode="layer"
     id="layer1"
     transform="translate(-38.690436,-37.981069)">
    <path
       style="fill:#1a1a1a;stroke:none;stroke-width:0.111788"
       d="m 45.643804,38.040214 c -1.280037,0.248149 -1.735213,1.673439 -2.168213,2.742333 -0.839794,2.073078 -1.158553,4.366648 -0.94286,6.595469 0.08854,0.914985 0.587475,1.973278 0.529259,2.87462 -0.04081,0.631712 -0.871788,1.39511 -1.196195,1.932248 -0.811936,1.344473 -1.464262,2.758363 -1.960421,4.247933 -2.017231,6.056319 -1.614766,13.653746 1.90323,19.11569 4.963705,7.706415 15.325739,7.897573 23.509823,7.937035 1.979088,0.0095 3.943421,0.05008 5.924748,0.0017 3.59196,-0.08809 7.200128,-0.168909 10.731611,-0.943376 2.863892,-0.628134 5.752817,-1.579669 8.048711,-3.469887 5.911667,-4.867125 6.870917,-13.935226 5.318411,-20.964211 -0.433624,-1.963213 -1.184056,-3.808603 -2.105407,-5.589384 -0.362192,-0.6999 -1.06355,-1.382701 -1.300203,-2.123964 -0.29277,-0.917215 0.398189,-2.814366 0.51467,-3.800779 0.23956,-2.030511 -0.342854,-4.293284 -1.133749,-6.14832 -0.280813,-0.658385 -0.541723,-1.481812 -1.090827,-1.968191 -0.896089,-0.793726 -2.158841,-0.407434 -3.221161,-0.380985 -2.41338,0.06005 -4.843871,0.5944 -7.042619,1.60117 -1.113629,0.509929 -2.301821,1.632612 -3.46542,1.916252 -0.995467,0.242657 -2.549316,-0.368868 -3.577202,-0.478976 -2.490521,-0.266791 -5.094725,-0.403788 -7.601563,-0.232116 -1.491916,0.102174 -2.991211,0.255011 -4.471503,0.484587 -0.67978,0.105415 -1.675585,0.488099 -2.34754,0.311205 -1.190428,-0.313364 -2.442225,-1.457485 -3.577207,-2.006563 -2.224461,-1.07617 -4.709388,-1.491103 -7.154409,-1.598331 -0.712097,-0.03122 -1.408993,-0.193638 -2.123964,-0.05502 m 1.497225,3.593929 c 0.540003,-0.239674 1.724114,0.0742 2.303554,0.154493 1.844608,0.255611 3.635559,0.850949 5.254017,1.774405 0.945502,0.539373 1.864061,1.528026 2.906481,1.842035 0.717341,0.216086 1.530485,-0.100273 2.235754,-0.240456 1.252245,-0.248952 2.529865,-0.440778 3.80078,-0.56229 3.087462,-0.295233 6.197953,-0.259684 9.278375,0.110109 1.338097,0.160641 3.274815,0.984402 4.583291,0.580513 0.988204,-0.305065 1.891671,-1.262862 2.794694,-1.779771 1.54591,-0.884741 3.267329,-1.462149 5.030441,-1.709969 0.581522,-0.08174 2.144983,-0.486155 2.604765,-0.05882 0.402212,0.373773 0.547647,1.209567 0.678441,1.721064 0.44592,1.742654 0.33838,3.5146 -0.06763,5.254017 -0.169133,0.72416 -0.640652,1.598339 -0.442789,2.347541 0.212173,0.803532 0.929066,1.457936 1.394552,2.123964 0.742603,1.062878 1.356654,2.243803 1.791842,3.46542 2.352015,6.602736 1.779323,17.520812 -5.400238,20.916701 -4.219312,1.995742 -8.959669,2.139613 -13.526305,2.339492 -5.573063,0.24403 -11.357959,0.368563 -16.879933,-0.535799 -3.642268,-0.596501 -7.440588,-1.83097 -9.915544,-4.722583 -3.947814,-4.612469 -4.161115,-12.591984 -1.978196,-17.997811 0.496553,-1.229665 1.106016,-2.386221 1.880716,-3.46542 0.462254,-0.643897 1.256862,-1.308919 1.381395,-2.123964 0.138451,-0.906264 -0.382725,-1.917047 -0.572743,-2.79469 -0.325607,-1.503994 -0.393998,-3.081541 -0.02087,-4.583296 0.131796,-0.530454 0.327056,-1.807157 0.885155,-2.05488 m 8.675451,12.722554 c -2.416963,0.288634 -4.530643,0.800844 -6.371462,2.533333 -4.644554,4.370894 -4.420821,13.160425 0.446714,17.267951 4.816261,4.064375 11.843234,3.849853 17.774236,3.849853 2.953653,0 5.90317,0.06562 8.831224,-0.365771 3.282983,-0.48359 6.910379,-1.635228 9.246406,-4.115794 4.439534,-4.7142 4.103166,-13.768777 -1.421271,-17.537361 C 79.233868,52.517805 72.500785,55.535624 66.883456,55.425177 63.249239,55.353634 59.43717,53.924542 55.81648,54.356824 m -0.223577,3.561219 c 2.56072,-0.306185 5.301642,0.449164 7.825135,0.814597 1.905421,0.275891 4.002556,0.281257 5.924745,0.149571 2.620192,-0.179421 5.207069,-0.702249 7.825135,-0.894189 1.571066,-0.115141 3.141008,-0.162542 4.583295,0.604993 4.11781,2.191375 4.500569,8.815574 1.643277,12.148751 -1.752604,2.044482 -4.555681,2.874619 -7.120871,3.304999 -3.030451,0.508413 -6.104502,0.383994 -9.166591,0.383994 -4.602293,0 -10.228008,0.344751 -14.197029,-2.433732 -5.133882,-3.593862 -4.081398,-13.269977 2.682904,-14.078984 m 0.670726,2.591237 c -5.919491,1.067238 -4.753882,12.886097 1.676815,11.72865 6.178618,-1.111951 5.013899,-12.935061 -1.676815,-11.72865 m 20.680716,0 c -6.013955,1.084227 -4.93487,12.878387 1.453239,11.72865 6.164975,-1.109492 5.15777,-12.920641 -1.453239,-11.72865 m -19.674737,3.515948 c 1.627293,0.134031 1.591072,4.697765 -0.111676,4.654948 -1.647417,-0.04149 -1.59711,-4.795689 0.111676,-4.654948 m 20.45725,-0.01432 c 1.698835,0 1.709119,4.667581 1.09e-4,4.667581 -1.684415,0 -1.650319,-4.667581 -1.09e-4,-4.667581 z"
       id="path490069" />
  </g>
</svg>
