<?xml version="1.0" encoding="UTF-8" standalone="no"?>
<!-- Created with Inkscape (http://www.inkscape.org/) -->

<svg
   width="48.769814mm"
   height="48.881451mm"
   viewBox="0 0 48.769814 48.881451"
   version="1.1"
   id="svg490808"
   inkscape:version="1.1.1 (c3084ef, 2021-09-22)"
   sodipodi:docname="instagram-logo.svg"
   xmlns:inkscape="http://www.inkscape.org/namespaces/inkscape"
   xmlns:sodipodi="http://sodipodi.sourceforge.net/DTD/sodipodi-0.dtd"
   xmlns="http://www.w3.org/2000/svg"
   xmlns:svg="http://www.w3.org/2000/svg">
  <sodipodi:namedview
     id="namedview490810"
     pagecolor="#505050"
     bordercolor="#eeeeee"
     borderopacity="1"
     inkscape:pageshadow="0"
     inkscape:pageopacity="0"
     inkscape:pagecheckerboard="0"
     inkscape:document-units="mm"
     showgrid="false"
     fit-margin-top="0"
     fit-margin-left="0"
     fit-margin-right="0"
     fit-margin-bottom="0"
     inkscape:zoom="0.46947952"
     inkscape:cx="24.495211"
     inkscape:cy="339.73793"
     inkscape:window-width="1280"
     inkscape:window-height="755"
     inkscape:window-x="0"
     inkscape:window-y="357"
     inkscape:window-maximized="0"
     inkscape:current-layer="layer1" />
  <defs
     id="defs490805" />
  <g
     inkscape:label="Layer 1"
     inkscape:groupmode="layer"
     id="layer1"
     transform="translate(-41.170219,-58.903)">
    <path
       style="fill:#1a1a1a;stroke:none;stroke-width:0.0949273"
       d="m 52.661467,59.10345 c -1.623732,0.213302 -3.047831,0.529649 -4.556509,1.194064 -0.896657,0.394881 -1.709592,0.981521 -2.46811,1.594939 -4.650901,3.76122 -4.366654,9.244798 -4.366654,14.63733 v 11.296346 c 0,4.892644 -0.821302,10.513768 2.244121,14.713731 0.593124,0.81267 1.248749,1.57864 2.027606,2.21987 3.761579,3.0969 8.029614,2.9062 12.625327,2.9062 h 11.011564 c 3.356533,0 6.927315,0.34183 10.252142,-0.13556 4.844613,-0.69563 8.883392,-4.31568 10.07226,-9.072383 0.619022,-2.476657 0.369742,-5.157499 0.369742,-7.689112 V 77.953692 c 0,-4.610143 0.662212,-9.692226 -2.174783,-13.669527 C 87.11655,63.468751 86.46336,62.694998 85.696155,62.047593 81.983551,58.914842 77.741537,59.063165 73.165758,59.063165 H 62.723757 c -3.274043,0 -6.818055,-0.385886 -10.06229,0.04028 m -0.284781,4.068765 c 2.427764,-0.298157 5.052217,-0.02716 7.499253,-0.02716 h 15.093436 c 3.600305,0 6.895232,0.04035 9.266989,3.227529 1.878799,2.52478 1.55472,5.478442 1.55472,8.448526 v 15.473144 c 0,2.500669 0.44986,5.492301 -0.400406,7.878965 -1.019234,2.861306 -3.517244,4.938696 -6.529288,5.370236 -2.467442,0.35351 -5.195367,0.0406 -7.689104,0.0406 H 55.794067 c -3.585499,0 -6.744735,-0.21852 -9.026664,-3.41738 -1.803419,-2.528109 -1.415337,-5.609829 -1.415337,-8.54346 V 76.434875 c 0,-2.69717 -0.396359,-5.688611 0.540631,-8.258673 0.985631,-2.703434 3.66686,-4.657997 6.483989,-5.003969 m 26.294853,4.027227 c -3.952678,0.0704 -3.754471,6.098352 0.189851,6.006465 3.866675,-0.08999 3.684982,-6.075481 -0.189851,-6.006465 m -13.859384,4.054664 c -2.649799,0.3481 -5.039688,1.053408 -7.119545,2.836047 -1.191337,1.021132 -2.198702,2.278918 -2.918253,3.673684 -3.130986,6.069175 -0.494759,13.855206 5.766072,16.677583 2.079289,0.937407 4.394658,1.22456 6.644911,0.951838 1.715336,-0.207989 3.376562,-0.808308 4.841291,-1.721985 7.26013,-4.52879 7.491374,-15.295439 0.569563,-20.233555 -1.140649,-0.813717 -2.438873,-1.43473 -3.797093,-1.784346 -1.257406,-0.3238 -2.68815,-0.569851 -3.986946,-0.399266 m -0.284781,4.068773 c 6.96377,-0.8552 11.721907,7.2139 7.57909,12.882958 -0.627849,0.859093 -1.446503,1.582534 -2.358089,2.125993 -0.956392,0.57013 -2.026412,0.938543 -3.132599,1.074384 -6.96377,0.8552 -11.721907,-7.2139 -7.579088,-12.882958 0.627846,-0.859092 1.446501,-1.582534 2.358086,-2.125992 0.956394,-0.570131 2.026412,-0.938544 3.1326,-1.074385 z"
       id="path490658" />
  </g>
</svg>
