<?xml version="1.0" encoding="UTF-8" standalone="no"?>
<!-- Created with Inkscape (http://www.inkscape.org/) -->

<svg
   width="49.146904mm"
   height="49.373508mm"
   viewBox="0 0 49.146904 49.373509"
   version="1.1"
   id="svg490808"
   inkscape:version="1.1.1 (c3084ef, 2021-09-22)"
   sodipodi:docname="linkedin-logo.svg"
   xmlns:inkscape="http://www.inkscape.org/namespaces/inkscape"
   xmlns:sodipodi="http://sodipodi.sourceforge.net/DTD/sodipodi-0.dtd"
   xmlns="http://www.w3.org/2000/svg"
   xmlns:svg="http://www.w3.org/2000/svg">
  <sodipodi:namedview
     id="namedview490810"
     pagecolor="#505050"
     bordercolor="#eeeeee"
     borderopacity="1"
     inkscape:pageshadow="0"
     inkscape:pageopacity="0"
     inkscape:pagecheckerboard="0"
     inkscape:document-units="mm"
     showgrid="false"
     fit-margin-top="0"
     fit-margin-left="0"
     fit-margin-right="0"
     fit-margin-bottom="0"
     inkscape:zoom="0.46947952"
     inkscape:cx="30.885266"
     inkscape:cy="275.83738"
     inkscape:window-width="1280"
     inkscape:window-height="755"
     inkscape:window-x="0"
     inkscape:window-y="357"
     inkscape:window-maximized="0"
     inkscape:current-layer="layer1" />
  <defs
     id="defs490805" />
  <g
     inkscape:label="Layer 1"
     inkscape:groupmode="layer"
     id="layer1"
     transform="translate(-39.421237,-76.003263)">
    <path
       style="fill:#1a1a1a;stroke:none;stroke-width:0.0960561"
       d="m 45.594144,76.054822 c -1.603409,0.218262 -3.161948,0.772165 -4.294752,1.984949 -3.322257,3.556804 -2.095998,10.071209 2.565732,11.764494 1.221428,0.443686 2.570695,0.482971 3.842266,0.302674 7.154493,-1.014838 7.730067,-12.358933 0.576341,-13.880609 -0.873983,-0.185903 -1.799173,-0.292708 -2.689587,-0.171508 m 0.192112,3.060775 c 0.921519,-0.120053 1.980729,0.01267 2.785645,0.498513 3.195901,1.929002 1.948606,7.049198 -1.632965,7.514688 -5.088124,0.661159 -6.214396,-7.353803 -1.15268,-8.013201 m 22.09304,13.996476 c -0.02574,-1.20868 -0.761637,-1.735168 -1.921135,-1.816432 -2.33927,-0.163967 -4.757495,0.0876 -7.108197,0.08741 -1.030206,-9.5e-5 -2.530323,-0.298448 -3.038559,0.864895 -0.279142,0.638969 -0.131311,1.525092 -0.131311,2.20892 0,1.635459 0.09606,3.260545 0.09606,4.898892 0,5.756002 0.151768,11.543702 -0.0998,17.290202 -0.07713,1.76004 -0.09231,3.51683 -0.09231,5.28312 0,0.8329 -0.05264,1.95101 0.406127,2.68536 0.521974,0.83569 1.829494,0.58057 2.667687,0.58057 h 6.435797 c 0.766723,0 1.920558,0.20911 2.575473,-0.27655 1.232599,-0.91407 0.655202,-3.8974 0.598145,-5.19869 -0.193073,-4.40928 -0.46357,-9.16264 0.133133,-13.54399 0.340809,-2.50247 1.64161,-4.31361 4.377786,-4.12179 2.985151,0.20921 2.823969,3.15729 3.114542,5.37053 0.149943,1.14153 0.0088,2.30978 0.05907,3.45804 0.121803,2.7795 0.11431,5.57484 -0.0075,8.35693 -0.06772,1.54507 -0.533787,3.85515 0.238316,5.28168 0.495747,0.91571 1.77849,0.67384 2.647128,0.67384 h 6.723971 c 0.860284,0 2.02545,0.18962 2.627246,-0.58643 0.598527,-0.77172 0.265306,-1.80029 0.25484,-2.6795 -0.02545,-2.14149 -0.186927,-4.40045 0.01594,-6.53186 0.202004,-2.12323 0.07972,-4.3016 0.07972,-6.43579 0,-3.99443 0.01354,-8.38441 -1.662935,-12.103148 C 83.6417,89.70033 73.776391,88.888364 67.879278,93.112071 M 48.37979,91.327723 c -1.866554,0.245138 -3.797006,0.05533 -5.667343,0.05533 -0.686402,0 -1.666256,-0.184715 -2.169057,0.397002 -0.417441,0.483068 -0.386154,1.21723 -0.46524,1.812303 -0.233292,1.755244 -0.04002,3.620759 0.03698,5.379173 0.266983,6.097199 0.09983,12.239639 0.09983,18.346829 0,1.73305 -0.09605,3.4591 -0.09605,5.18706 0,0.74329 -0.134085,1.59953 0.416914,2.19124 0.688334,0.73906 1.937828,0.49835 2.849012,0.49835 2.59625,0 5.612784,0.42928 8.164817,-0.0316 0.992842,-0.17934 1.120886,-1.14567 1.221363,-1.98559 0.252918,-2.11507 0.116803,-4.49882 0.02364,-6.62791 -0.258875,-5.91152 -0.188368,-11.84552 -0.188368,-17.770488 0,-1.565629 0.09606,-3.135002 0.09606,-4.706779 0,-0.607461 0.15513,-1.476389 -0.178472,-2.015365 -0.674033,-1.089088 -3.05547,-0.872483 -4.14408,-0.729551 M 85.457672,122.12115 H 78.92582 c 0.337926,-4.28182 0.287498,-8.77795 0.0998,-13.06372 -0.09721,-2.22054 -0.07252,-4.66153 -1.039431,-6.72396 -1.966854,-4.195468 -8.466435,-4.550109 -11.121249,-0.76846 -1.287255,1.83363 -1.485516,4.18356 -1.691561,6.33974 -0.447432,4.68248 0.01634,9.51624 0.01634,14.2164 H 58.753923 V 94.360791 h 6.051572 c 0,1.361411 -0.438498,4.147057 1.632965,4.213719 1.01311,0.03257 1.404923,-0.930788 1.91383,-1.620189 0.518227,-0.702078 1.200037,-1.338547 1.928436,-1.817488 3.395026,-2.232163 9.700474,-2.293641 12.554609,0.954419 2.002879,2.279236 2.269052,5.289358 2.54262,8.163378 0.55732,5.85667 0.07972,11.97971 0.07972,17.86655 m -35.733087,0 H 43.192739 V 94.360791 h 4.802836 l 1.630274,0.153979 0.09875,1.95927 v 5.18706 z"
       id="path490246" />
  </g>
</svg>
